<mxfile host="drawio-plugin" modified="2021-03-30T17:30:47.501Z" agent="5.0 (Windows NT 6.2; Win64; x64) AppleWebKit/537.36 (KHTML, like Gecko) Chrome/84.0.4147.105 Safari/537.36" etag="fqQJuBjkAlfRBB2l0_Ep" version="13.7.9" type="embed"><diagram id="LiLwslcTSUF4OJy98CE3" name="第 1 页"><mxGraphModel dx="900" dy="563" grid="1" gridSize="10" guides="1" tooltips="1" connect="1" arrows="1" fold="1" page="1" pageScale="1" pageWidth="827" pageHeight="1169" math="0" shadow="0"><root><mxCell id="0"/><mxCell id="1" parent="0"/><mxCell id="4" style="edgeStyle=orthogonalEdgeStyle;rounded=0;orthogonalLoop=1;jettySize=auto;html=1;" edge="1" parent="1" source="2" target="5"><mxGeometry relative="1" as="geometry"><mxPoint x="470" y="270" as="targetPoint"/></mxGeometry></mxCell><mxCell id="7" value="URL" style="edgeStyle=orthogonalEdgeStyle;rounded=0;orthogonalLoop=1;jettySize=auto;html=1;entryX=0.5;entryY=1;entryDx=0;entryDy=0;" edge="1" parent="1" source="2" target="6"><mxGeometry relative="1" as="geometry"/></mxCell><mxCell id="2" value="&lt;font style=&quot;font-size: 19px&quot; face=&quot;Comic Sans MS&quot;&gt;spider&lt;/font&gt;" style="rounded=1;whiteSpace=wrap;html=1;" vertex="1" parent="1"><mxGeometry x="260" y="320" width="120" height="60" as="geometry"/></mxCell><mxCell id="13" style="edgeStyle=orthogonalEdgeStyle;rounded=0;orthogonalLoop=1;jettySize=auto;html=1;" edge="1" parent="1" source="5"><mxGeometry relative="1" as="geometry"><mxPoint x="500" y="460" as="targetPoint"/></mxGeometry></mxCell><mxCell id="5" value="&lt;font style=&quot;font-size: 19px&quot; face=&quot;Comic Sans MS&quot;&gt;html&lt;/font&gt;" style="rounded=1;whiteSpace=wrap;html=1;" vertex="1" parent="1"><mxGeometry x="440" y="320" width="120" height="60" as="geometry"/></mxCell><mxCell id="6" value="&lt;font style=&quot;font-size: 19px&quot;&gt;爬取过的&lt;font face=&quot;Comic Sans MS&quot;&gt;URL&lt;/font&gt;队列&lt;/font&gt;" style="rounded=1;whiteSpace=wrap;html=1;" vertex="1" parent="1"><mxGeometry x="240" y="170" width="160" height="60" as="geometry"/></mxCell><mxCell id="12" value="&lt;font style=&quot;font-size: 19px&quot; face=&quot;Comic Sans MS&quot;&gt;item&lt;/font&gt;" style="edgeStyle=orthogonalEdgeStyle;rounded=0;orthogonalLoop=1;jettySize=auto;html=1;" edge="1" parent="1" source="8"><mxGeometry relative="1" as="geometry"><mxPoint x="620" y="460" as="targetPoint"/></mxGeometry></mxCell><mxCell id="21" style="edgeStyle=orthogonalEdgeStyle;rounded=0;orthogonalLoop=1;jettySize=auto;html=1;entryX=0.5;entryY=1;entryDx=0;entryDy=0;" edge="1" parent="1" source="8" target="2"><mxGeometry relative="1" as="geometry"/></mxCell><mxCell id="8" value="&lt;font style=&quot;font-size: 19px&quot;&gt;&lt;font face=&quot;Comic Sans MS&quot;&gt;item&lt;/font&gt;队列&lt;/font&gt;" style="rounded=1;whiteSpace=wrap;html=1;" vertex="1" parent="1"><mxGeometry x="80" y="430" width="120" height="60" as="geometry"/></mxCell><mxCell id="9" value="&lt;pre&gt;&lt;font face=&quot;Comic Sans MS&quot;&gt;&lt;font style=&quot;font-size: 19px&quot;&gt;item&lt;br&gt;&lt;/font&gt;&lt;font style=&quot;font-size: 19px&quot;&gt;LinkItem&lt;br&gt;&lt;/font&gt;&lt;font style=&quot;font-size: 19px&quot;&gt;StoryItem&lt;/font&gt;&lt;/font&gt;&lt;/pre&gt;" style="whiteSpace=wrap;html=1;aspect=fixed;" vertex="1" parent="1"><mxGeometry x="70" y="540" width="140" height="140" as="geometry"/></mxCell><mxCell id="10" value="" style="shape=flexArrow;endArrow=classic;html=1;entryX=0.5;entryY=1;entryDx=0;entryDy=0;exitX=0.5;exitY=0;exitDx=0;exitDy=0;" edge="1" parent="1" source="9" target="8"><mxGeometry width="50" height="50" relative="1" as="geometry"><mxPoint x="390" y="550" as="sourcePoint"/><mxPoint x="440" y="500" as="targetPoint"/></mxGeometry></mxCell><mxCell id="14" value="&lt;font style=&quot;font-size: 19px&quot;&gt;&lt;font style=&quot;font-size: 19px&quot; face=&quot;Comic Sans MS&quot;&gt;callback&lt;/font&gt;函数&lt;/font&gt;" style="rounded=1;whiteSpace=wrap;html=1;" vertex="1" parent="1"><mxGeometry x="620" y="430" width="120" height="60" as="geometry"/></mxCell><mxCell id="17" value="&lt;font style=&quot;font-size: 19px&quot; face=&quot;Comic Sans MS&quot;&gt;callback&lt;br&gt;parser&lt;br&gt;dump&lt;/font&gt;" style="whiteSpace=wrap;html=1;aspect=fixed;" vertex="1" parent="1"><mxGeometry x="610" y="540" width="140" height="140" as="geometry"/></mxCell><mxCell id="18" value="" style="shape=flexArrow;endArrow=classic;html=1;entryX=0.5;entryY=1;entryDx=0;entryDy=0;exitX=0.5;exitY=0;exitDx=0;exitDy=0;" edge="1" parent="1" source="17" target="14"><mxGeometry width="50" height="50" relative="1" as="geometry"><mxPoint x="150" y="550" as="sourcePoint"/><mxPoint x="150" y="500" as="targetPoint"/></mxGeometry></mxCell><mxCell id="22" value="&lt;font style=&quot;font-size: 19px&quot; face=&quot;Comic Sans MS&quot;&gt;item.URL&lt;/font&gt;" style="text;html=1;strokeColor=none;fillColor=none;align=center;verticalAlign=middle;whiteSpace=wrap;rounded=0;" vertex="1" parent="1"><mxGeometry x="300" y="410" width="40" height="20" as="geometry"/></mxCell></root></mxGraphModel></diagram></mxfile>